# xmcd CD database file
#
# Track frame offsets:
#	150
#	22650
#	40675
#	85750
#	89050
#	96525
#	108675
#	119700
#	132175
#	147750
#	170475
#	181300
#	192300
#	204100
#	211275
#	239625
#	261750
#	282900
#	295425
#
# Disc length: 4350 seconds
#
# Revision: 0
# Processed by: cddbd v1.5.1PL0 Copyright (c) Steve Scherf et al.
# Submitted via: CDex 1.51
#
DISCID=1f10fc13
DTITLE= 花の歌
DYEAR=1998
DGENRE=Jazz
TTITLE0=1.Allegro ma non tropo
TTITLE1=2.Tempo di Menuetto
TTITLE2=ダニューブ河
TTITLE3=楽しき農夫
TTITLE4=タンブーラン
TTITLE5=小さなさすらい人
TTITLE6=ト調のメヌエット
TTITLE7=トルコふうロンド
TTITLE8=トルコ・マーチ K.311
TTITLE9=花の歌
TTITLE10=ホフマンの舟歌
TTITLE11=マズルカ Op.7-1
TTITLE12=マズルカ Op.68-2
TTITLE13=マズルカ Op.68-3
TTITLE14=6つの変奏曲
TTITLE15=森の鍛冶屋
TTITLE16=森の水車
TTITLE17=ユーモレスク
TTITLE18=ロンド　ニ長調 K.485
EXTD=YEAR: 1998
EXTT0=
EXTT1=
EXTT2=
EXTT3=
EXTT4=
EXTT5=
EXTT6=
EXTT7=
EXTT8=
EXTT9=
EXTT10=
EXTT11=
EXTT12=
EXTT13=
EXTT14=
EXTT15=
EXTT16=
EXTT17=
EXTT18=
PLAYORDER=
